<?xml version="1.0" encoding="utf-8"?>
<!-- Generator: Adobe Illustrator 17.0.0, SVG Export Plug-In . SVG Version: 6.00 Build 0)  -->
<!DOCTYPE svg PUBLIC "-//W3C//DTD SVG 1.1//EN" "http://www.w3.org/Graphics/SVG/1.1/DTD/svg11.dtd">
<svg version="1.1" id="图层_1" xmlns="http://www.w3.org/2000/svg" xmlns:xlink="http://www.w3.org/1999/xlink" x="0px" y="0px"
	 width="100px" height="100px" viewBox="0 0 100 100" enable-background="new 0 0 100 100" xml:space="preserve">
<path fill="#F95555" d="M50.279,99.777c-27.614,0-50-22.386-50-50s22.386-50,50-50s50,22.386,50,50S77.893,99.777,50.279,99.777z
	 M50.279,3.527c-25.543,0-46.25,20.707-46.25,46.25s20.707,46.25,46.25,46.25s46.25-20.707,46.25-46.25S75.822,3.527,50.279,3.527z
	 M70.965,27.3c0.737-0.742,1.931-0.742,2.668,0l0.889,0.896c0.737,0.742,0.737,1.945,0,2.687L29.308,76.329
	c-0.737,0.742-1.931,0.742-2.668,0l-0.889-0.896c-0.737-0.742-0.737-1.945,0-2.687L70.965,27.3z M74.803,72.605
	c0.742,0.737,0.742,1.931,0,2.668l-0.896,0.889c-0.742,0.737-1.945,0.737-2.687,0L25.773,30.948c-0.742-0.737-0.742-1.931,0-2.668
	l0.896-0.889c0.742-0.737,1.945-0.737,2.687,0L74.803,72.605z"/>
</svg>
