<svg xmlns="http://www.w3.org/2000/svg" xmlns:xlink="http://www.w3.org/1999/xlink" preserveAspectRatio="xMidYMid" width="100" height="100" viewBox="0 0 100 100">
  <defs>
    <style>
      .cls-1 {
        fill: #50d4b2;
        fill-rule: evenodd;
      }
    </style>
  </defs>
  <path d="M50.000,100.000 C22.386,100.000 0.000,77.614 0.000,50.000 C0.000,22.386 22.386,0.000 50.000,0.000 C77.614,0.000 100.000,22.386 100.000,50.000 C100.000,77.614 77.614,100.000 50.000,100.000 ZM50.000,3.750 C24.457,3.750 3.750,24.457 3.750,50.000 C3.750,75.543 24.457,96.250 50.000,96.250 C75.543,96.250 96.250,75.543 96.250,50.000 C96.250,24.457 75.543,3.750 50.000,3.750 ZM44.219,68.362 L44.219,68.362 L43.330,69.258 C42.593,70.000 41.399,70.000 40.662,69.258 L39.773,68.362 L39.773,68.362 L21.987,50.448 C21.250,49.706 21.250,48.503 21.987,47.761 L22.876,46.865 C23.613,46.123 24.807,46.123 25.544,46.865 L41.996,63.436 L74.456,30.742 C75.193,30.000 76.387,30.000 77.124,30.742 L78.013,31.638 C78.750,32.380 78.750,33.583 78.013,34.325 L44.219,68.362 Z" class="cls-1"/>
</svg>
